<mxfile host="Electron" agent="Mozilla/5.0 (Windows NT 10.0; Win64; x64) AppleWebKit/537.36 (KHTML, like Gecko) draw.io/26.2.15 Chrome/134.0.6998.205 Electron/35.2.1 Safari/537.36" version="26.2.15">
  <diagram name="按讚活動圖" id="AY2VR2jHAgnaNs_ThkT7">
    <mxGraphModel dx="915" dy="903" grid="1" gridSize="10" guides="1" tooltips="1" connect="1" arrows="1" fold="1" page="1" pageScale="1" pageWidth="827" pageHeight="1169" math="0" shadow="0">
      <root>
        <mxCell id="0" />
        <mxCell id="1" parent="0" />
        <mxCell id="we0SLsiICp8ScAnNYX2L-1" value="" style="ellipse;shape=startState;fillColor=#000000;strokeColor=#000000;" vertex="1" parent="1">
          <mxGeometry x="230" y="444" width="30" height="30" as="geometry" />
        </mxCell>
        <mxCell id="we0SLsiICp8ScAnNYX2L-2" value="" style="edgeStyle=elbowEdgeStyle;elbow=horizontal;verticalAlign=bottom;endArrow=open;endSize=8;strokeColor=#000000;endFill=1;rounded=0;fillColor=#000000;" edge="1" parent="1" source="we0SLsiICp8ScAnNYX2L-1">
          <mxGeometry x="100" y="40" as="geometry">
            <mxPoint x="245.64285714285734" y="514" as="targetPoint" />
          </mxGeometry>
        </mxCell>
        <mxCell id="we0SLsiICp8ScAnNYX2L-3" value="" style="endArrow=open;strokeColor=#000000;endFill=1;rounded=0" edge="1" parent="1" target="we0SLsiICp8ScAnNYX2L-6">
          <mxGeometry relative="1" as="geometry">
            <mxPoint x="245" y="556" as="sourcePoint" />
            <mxPoint x="244.75" y="616" as="targetPoint" />
          </mxGeometry>
        </mxCell>
        <mxCell id="we0SLsiICp8ScAnNYX2L-4" value="使用者" style="swimlane;whiteSpace=wrap;startSize=30;fontSize=20;" vertex="1" parent="1">
          <mxGeometry x="130" y="410" width="270" height="590" as="geometry" />
        </mxCell>
        <mxCell id="we0SLsiICp8ScAnNYX2L-5" value="" style="ellipse;html=1;shape=endState;fillColor=#000000;strokeColor=#000000;" vertex="1" parent="we0SLsiICp8ScAnNYX2L-4">
          <mxGeometry x="99.69" y="490" width="30" height="30" as="geometry" />
        </mxCell>
        <mxCell id="we0SLsiICp8ScAnNYX2L-6" value="點選社群" style="fontSize=20;" vertex="1" parent="we0SLsiICp8ScAnNYX2L-4">
          <mxGeometry x="37.5" y="105" width="155" height="50" as="geometry" />
        </mxCell>
        <mxCell id="we0SLsiICp8ScAnNYX2L-29" style="edgeStyle=orthogonalEdgeStyle;rounded=0;orthogonalLoop=1;jettySize=auto;html=1;" edge="1" parent="we0SLsiICp8ScAnNYX2L-4" source="we0SLsiICp8ScAnNYX2L-8" target="we0SLsiICp8ScAnNYX2L-28">
          <mxGeometry relative="1" as="geometry" />
        </mxCell>
        <mxCell id="we0SLsiICp8ScAnNYX2L-8" value="點選貼文" style="fontSize=20;" vertex="1" parent="we0SLsiICp8ScAnNYX2L-4">
          <mxGeometry x="36.879999999999995" y="230" width="155.62" height="50" as="geometry" />
        </mxCell>
        <mxCell id="we0SLsiICp8ScAnNYX2L-28" value="按讚" style="fontSize=20;" vertex="1" parent="we0SLsiICp8ScAnNYX2L-4">
          <mxGeometry x="37.49999999999999" y="350" width="155.62" height="50" as="geometry" />
        </mxCell>
        <mxCell id="we0SLsiICp8ScAnNYX2L-10" value="系統" style="swimlane;whiteSpace=wrap;startSize=30;fontSize=20;" vertex="1" parent="1">
          <mxGeometry x="400" y="410" width="310" height="590" as="geometry" />
        </mxCell>
        <mxCell id="we0SLsiICp8ScAnNYX2L-16" value="顯示社群頁面" style="fontSize=20;" vertex="1" parent="we0SLsiICp8ScAnNYX2L-10">
          <mxGeometry x="76.63" y="105" width="161.37" height="50" as="geometry" />
        </mxCell>
        <mxCell id="we0SLsiICp8ScAnNYX2L-18" value="紀錄按讚數" style="fontSize=20;" vertex="1" parent="we0SLsiICp8ScAnNYX2L-10">
          <mxGeometry x="90" y="350" width="160" height="50" as="geometry" />
        </mxCell>
        <mxCell id="we0SLsiICp8ScAnNYX2L-19" value="顯示按讚成功" style="fontSize=20;" vertex="1" parent="we0SLsiICp8ScAnNYX2L-10">
          <mxGeometry x="100" y="480" width="140" height="50" as="geometry" />
        </mxCell>
        <mxCell id="we0SLsiICp8ScAnNYX2L-31" style="edgeStyle=orthogonalEdgeStyle;rounded=0;orthogonalLoop=1;jettySize=auto;html=1;entryX=0.5;entryY=0;entryDx=0;entryDy=0;" edge="1" parent="we0SLsiICp8ScAnNYX2L-10" source="we0SLsiICp8ScAnNYX2L-18" target="we0SLsiICp8ScAnNYX2L-19">
          <mxGeometry relative="1" as="geometry" />
        </mxCell>
        <mxCell id="we0SLsiICp8ScAnNYX2L-23" style="edgeStyle=orthogonalEdgeStyle;rounded=0;orthogonalLoop=1;jettySize=auto;html=1;entryX=0;entryY=0.5;entryDx=0;entryDy=0;" edge="1" parent="1" source="we0SLsiICp8ScAnNYX2L-6" target="we0SLsiICp8ScAnNYX2L-16">
          <mxGeometry relative="1" as="geometry" />
        </mxCell>
        <mxCell id="we0SLsiICp8ScAnNYX2L-24" style="edgeStyle=orthogonalEdgeStyle;rounded=0;orthogonalLoop=1;jettySize=auto;html=1;entryX=0.5;entryY=0;entryDx=0;entryDy=0;" edge="1" parent="1" source="we0SLsiICp8ScAnNYX2L-16" target="we0SLsiICp8ScAnNYX2L-8">
          <mxGeometry relative="1" as="geometry">
            <Array as="points">
              <mxPoint x="557" y="610" />
              <mxPoint x="245" y="610" />
            </Array>
          </mxGeometry>
        </mxCell>
        <mxCell id="we0SLsiICp8ScAnNYX2L-30" style="edgeStyle=orthogonalEdgeStyle;rounded=0;orthogonalLoop=1;jettySize=auto;html=1;" edge="1" parent="1" source="we0SLsiICp8ScAnNYX2L-28" target="we0SLsiICp8ScAnNYX2L-18">
          <mxGeometry relative="1" as="geometry" />
        </mxCell>
        <mxCell id="we0SLsiICp8ScAnNYX2L-32" style="edgeStyle=orthogonalEdgeStyle;rounded=0;orthogonalLoop=1;jettySize=auto;html=1;entryX=1;entryY=0.5;entryDx=0;entryDy=0;" edge="1" parent="1" source="we0SLsiICp8ScAnNYX2L-19" target="we0SLsiICp8ScAnNYX2L-5">
          <mxGeometry relative="1" as="geometry" />
        </mxCell>
      </root>
    </mxGraphModel>
  </diagram>
</mxfile>
